<?xml version="1.0" encoding="UTF-8"?>
<svg xmlns="http://www.w3.org/2000/svg" viewBox="0 0 384.93 150.79">
  <path fill="#fff" d="M1.86 2.15h151v58.46h-151z"></path>
  <path fill="#005eb8" d="m151.01 7.43-3.26 10.1a25.46 25.46 0 0 0-11.3-2.3c-5.42 0-9.8.81-9.8 4.9 0 7.2 19.83 4.53 19.83 19.98 0 14.04-13.07 17.68-24.96 17.68a59.25 59.25 0 0 1-15.82-2.6l3.2-10.33c2.67 1.79 8.1 2.9 12.55 2.9 4.23 0 10.92-.81 10.92-6.01 0-8.17-19.83-5.13-19.83-19.46 0-13.15 11.58-17.09 22.8-17.09 6.31 0 12.25.67 15.67 2.23m-39.3-1.34L101.1 56.9H87.43l4.53-21.76h-16.2L71.25 56.9H57.57L68.19 6.1h13.67l-4.01 19.45h16.19L98.05 6.1Zm-48.58 0L52.3 56.9h-17l-10.7-35.13h-.16l-7.13 35.2H4.46l10.92-50.8h17.08l10.47 35.28h.15l7.2-35.28h12.86ZM156.88 0H0v63.14h156.88V0Z"></path>
  <g>
    <path d="m19.39 113.28-3.64-9.36c-.9-2.38-1.49-3.56-4.39-3.56H9.28v12.92H3.04V82.16h9.74c10.1 0 11.66 4.23 11.66 8.39a7.1 7.1 0 0 1-6.4 7.2v.08c1.34.07 2.53 1.26 3.42 3.5l4.83 11.88h-6.9Zm-7.65-17.82c5.34 0 6.24-2.3 6.24-4.31 0-1.64-.52-4.09-5.95-4.09H9.36v8.4Z"></path>
    <path d="M40.85 113.8c-7.42 0-11.95-5.05-11.95-11.88 0-7.36 4.97-12.19 11.95-12.19S52.9 94.5 52.9 101.92c0 6.83-4.6 11.88-12.04 11.88Zm5.8-12.55c0-3.64-1.93-6.84-5.8-6.84-3.71 0-5.72 3.2-5.72 6.84 0 4.82 1.86 7.94 5.72 7.94s5.8-3.04 5.8-7.94Z"></path>
    <path d="M56.82 118.1a9.5 9.5 0 0 0 3.05.38 3.74 3.74 0 0 0 3.94-4.09l-8.84-24.06h6.6l5.5 16.79h.08l5.5-16.8h6.1l-9.66 25.49c-1.71 4.53-3.72 7.35-8.62 7.35a16.54 16.54 0 0 1-4.16-.6Z"></path>
    <path d="M96.34 113.28c-.15-.82-.22-2.38-.3-3.42h-.07a8.13 8.13 0 0 1-7.06 3.94c-4.16 0-8.02-2.53-8.02-6.83 0-3.94 2.3-7.88 11.22-7.88h3.71v-.07c0-3.86-1.93-4.83-5.2-4.83a11.7 11.7 0 0 0-7.06 2.53l-.14-5.13a20.78 20.78 0 0 1 7.94-1.7c6.84 0 9.88 2.74 9.88 9.65v4.75c0 1.2.08 6.02.37 9.07h-5.27Zm-.52-10.62h-2.6c-4.23 0-6.6 1.26-6.6 3.94 0 1.78 1.4 2.82 3.78 2.82 2.67 0 5.42-1.86 5.42-6.54v-.22Z"></path>
    <path d="M107.26 113.28V79.85h5.95v33.43Z"></path>
    <path d="M132.44 113.28V82.16h17.31v4.9h-11.07v7.65h10.55v4.9h-10.55v13.66Z"></path>
    <path d="M154.36 113.28V90.33h5.27v5.2h.08c.37-2.38 2.82-5.72 6.3-5.72a9.06 9.06 0 0 1 1.8.15v6.01a6.3 6.3 0 0 0-2.68-.52c-2.23 0-4.83 1.2-4.83 8.32v9.44h-5.94Z"></path>
    <path d="M189.12 111.94a15.82 15.82 0 0 1-7.87 1.86c-7.65 0-12.04-4.38-12.04-11.89 0-6.38 3.35-12.1 10.62-12.1 7.8 0 10.92 4.82 10.92 13.89h-15.9c.3 3.64 2.75 5.8 6.61 5.8a15.39 15.39 0 0 0 7.58-2.3v4.75Zm-4-12.4c-.23-3.27-1.79-5.42-4.9-5.42-2.98 0-4.98 1.93-5.28 5.42Z"></path>
    <path d="M213.93 111.94a15.82 15.82 0 0 1-7.87 1.86c-7.65 0-12.04-4.38-12.04-11.89 0-6.38 3.35-12.1 10.63-12.1 7.8 0 10.91 4.82 10.91 13.89h-15.9c.3 3.64 2.75 5.8 6.62 5.8a15.39 15.39 0 0 0 7.57-2.3v4.75Zm-4-12.4c-.23-3.27-1.79-5.42-4.9-5.42-2.98 0-4.98 1.93-5.28 5.42Z"></path>
    <path d="M233.24 113.28V82.16h6.24v26.22h12.11v4.9Z"></path>
    <path d="M265.48 113.8c-7.43 0-11.96-5.05-11.96-11.88 0-7.36 4.98-12.19 11.96-12.19s12.04 4.76 12.04 12.19c0 6.83-4.6 11.88-12.04 11.88Zm5.8-12.55c0-3.64-1.93-6.84-5.8-6.84-3.71 0-5.72 3.2-5.72 6.84 0 4.82 1.86 7.94 5.72 7.94s5.8-3.04 5.8-7.94Z"></path>
    <path d="M297.27 113.28v-12.85c0-3.42-.74-5.94-3.86-5.94-3.79 0-5.27 3.64-5.27 7.72v11.14h-5.94V90.33h5.64v3.12h.07a8.56 8.56 0 0 1 7.5-3.64c5.28 0 7.8 3.64 7.8 8.98v14.49h-5.94Z"></path>
    <path d="M324.69 113.28v-2.6h-.08a8.53 8.53 0 0 1-7.06 3.12c-6.98 0-9.65-5.72-9.65-12.1 0-7 3.04-11.97 9.65-11.97a8.19 8.19 0 0 1 6.84 3.2h.07V79.78h5.95v33.43h-5.72Zm-.23-11.59c0-3.2-1.48-7.28-5.35-7.28-3.64 0-4.97 3.72-4.97 7.28 0 3.27 1.19 7.43 5.05 7.43 3.93 0 5.27-4.08 5.27-7.43Z"></path>
    <path d="M347.2 113.8c-7.44 0-11.97-5.05-11.97-11.88 0-7.36 4.98-12.19 11.96-12.19s12.04 4.76 12.04 12.19c0 6.83-4.68 11.88-12.04 11.88Zm5.79-12.55c0-3.64-1.93-6.84-5.8-6.84-3.71 0-5.72 3.2-5.72 6.84 0 4.82 1.86 7.94 5.72 7.94s5.8-3.04 5.8-7.94Z"></path>
    <path d="M378.98 113.28v-12.85c0-3.42-.74-5.94-3.86-5.94-3.79 0-5.27 3.64-5.27 7.72v11.14h-5.94V90.33h5.64v3.12h.07a8.56 8.56 0 0 1 7.5-3.64c5.28 0 7.8 3.64 7.8 8.98v14.49h-5.94Z"></path>
    <path fill="#005eb8" d="M14.19 150.42 6.24 134.9h-.07v15.52H2.15V129.7h5.13l7.87 15.52h.08V129.7h4v20.72Z"></path>
    <path fill="#005eb8" d="M36.4 150.42v-9.06h-8.32v9.06h-4.16V129.7h4.16v8.39h8.32v-8.4h4.16v20.73Z"></path>
    <path fill="#005eb8" d="M45.39 146.19a9.84 9.84 0 0 0 4.68 1.26c1.48 0 3.71-.74 3.71-2.67 0-1.56-1.41-2.23-3.42-3.05-2.75-1.04-5.64-2.23-5.64-6.09 0-4.46 3.34-6.31 7.28-6.31a14.76 14.76 0 0 1 4.9.74l-.37 3.42a10.84 10.84 0 0 0-4.24-.9c-1.56 0-3.27.75-3.27 2.9 0 1.57 1.79 2.16 3.5 2.83 2.82 1.04 5.57 2.3 5.57 6.16 0 4.01-2.83 6.24-7.8 6.24a17.8 17.8 0 0 1-5.28-.81Z"></path>
    <path fill="#005eb8" d="M70.12 150.42V129.7h11.52v3.26h-7.36v5.13h6.99v3.27h-6.99v9.06Z"></path>
    <path fill="#005eb8" d="M91.66 150.72a7.99 7.99 0 1 1 8.03-7.88c0 4.53-3.12 7.88-8.03 7.88Zm3.87-8.32c0-2.45-1.34-4.53-3.87-4.53s-3.86 2.15-3.86 4.53c0 3.27 1.26 5.27 3.86 5.27 2.53 0 3.87-2 3.87-5.27Z"></path>
    <path fill="#005eb8" d="M113.06 150.42v-2.08h-.08a6.52 6.52 0 0 1-5.05 2.46c-3.42 0-5.2-2.3-5.2-6.02v-9.66h4.01v8.7c0 3.04 1.12 3.86 2.6 3.86 2.38 0 3.5-2.23 3.5-5.2v-7.44h4v15.3h-3.78Z"></path>
    <path fill="#005eb8" d="M131.03 150.42v-8.62c0-2.3-.45-4-2.6-4-2.53 0-3.5 2.44-3.5 5.12v7.43h-4v-15.3h3.79v2.08h.07a5.73 5.73 0 0 1 5.05-2.45c3.5 0 5.2 2.37 5.2 6.01v9.66h-4.01Z"></path>
    <path fill="#005eb8" d="M149.3 150.42v-1.7h-.07a5.67 5.67 0 0 1-4.68 2.07c-4.68 0-6.39-3.79-6.39-8.02 0-4.6 2.01-7.95 6.4-7.95a5.4 5.4 0 0 1 4.6 2.16h.07v-8.77h4.01v22.29h-3.93Zm-.14-7.72c0-2.16-1.04-4.9-3.57-4.9-2.38 0-3.27 2.52-3.27 4.9 0 2.15.75 4.97 3.35 4.97s3.49-2.75 3.49-4.97Z"></path>
    <path fill="#005eb8" d="M166.54 150.42a11.62 11.62 0 0 1-.15-2.3h-.08a5.49 5.49 0 0 1-4.75 2.67c-2.75 0-5.35-1.63-5.35-4.6 0-2.67 1.49-5.2 7.5-5.2h2.45v-.07c0-2.53-1.33-3.27-3.41-3.27a8.34 8.34 0 0 0-4.76 1.63l-.15-3.42a13.47 13.47 0 0 1 5.35-1.18c4.6 0 6.61 1.85 6.61 6.46v3.12c0 .82.08 4.01.22 6.1h-3.49Zm-.3-7.13h-1.78c-2.83 0-4.39.82-4.39 2.67 0 1.2.9 1.86 2.53 1.86 1.78 0 3.64-1.19 3.64-4.3Z"></path>
    <path fill="#005eb8" d="M182.88 150.42a10.98 10.98 0 0 1-2.9.37c-3.27 0-4.9-2-4.9-4.98v-7.8h-2.97v-2.9h2.97v-3.04l4.01-1.26v4.3h3.57v2.9h-3.57v7.13c0 1.64.52 2.53 1.93 2.53a3.34 3.34 0 0 0 1.79-.45Z"></path>
    <path fill="#005eb8" d="M185.4 132.3v-3.8h4.02v3.8Zm0 18.12v-15.3h4.02v15.3Z"></path>
    <path fill="#005eb8" d="M200.56 150.72a7.99 7.99 0 1 1 8.02-7.88c0 4.53-3.04 7.88-8.02 7.88Zm3.86-8.32c0-2.45-1.33-4.53-3.86-4.53s-3.86 2.15-3.86 4.53c0 3.27 1.26 5.27 3.86 5.27s3.86-2 3.86-5.27Z"></path>
    <path fill="#005eb8" d="M221.8 150.42v-8.62c0-2.3-.44-4-2.6-4-2.52 0-3.49 2.44-3.49 5.12v7.43h-4v-15.3h3.78v2.08h.07a5.73 5.73 0 0 1 5.06-2.45c3.49 0 5.2 2.37 5.2 6.01v9.66h-4.02Z"></path>
    <path fill="#005eb8" d="M242.3 150.42v-17.46h-5.94v-3.26h16.05v3.26h-5.95v17.46Z"></path>
    <path fill="#005eb8" d="M252.04 150.42v-15.3h3.56v3.5h.08a4.67 4.67 0 0 1 4.23-3.87 2.58 2.58 0 0 1 1.19.15v4a3.86 3.86 0 0 0-1.78-.3c-1.49 0-3.27.82-3.27 5.58v6.31h-4.01Z"></path>
    <path fill="#005eb8" d="M273.8 150.42v-2.08h-.07a6.51 6.51 0 0 1-5.05 2.46c-3.42 0-5.2-2.3-5.2-6.02v-9.66h4v8.7c0 3.04 1.12 3.86 2.6 3.86 2.38 0 3.5-2.23 3.5-5.2v-7.44h4.01v15.3h-3.79Z"></path>
    <path fill="#005eb8" d="M281.08 146.86a9.14 9.14 0 0 0 3.94 1.04c1.04 0 2.6-.45 2.6-1.86 0-1.26-1.26-1.64-2.82-2.08-2.68-.74-4.09-1.78-4.09-4.38 0-3.12 2.6-4.76 6.02-4.76a18.26 18.26 0 0 1 4.3.6l-.3 2.97a10.4 10.4 0 0 0-3.56-.67c-1.41 0-2.38.6-2.38 1.7 0 .9.82 1.27 2.68 1.79 2.82.82 4.3 2.08 4.3 4.6 0 3.35-2.9 4.98-6.46 4.98a17.97 17.97 0 0 1-4.46-.67Z"></path>
    <path fill="#005eb8" d="M303.96 150.42a10.98 10.98 0 0 1-2.9.37c-3.27 0-4.9-2-4.9-4.98v-7.8h-2.97v-2.9h2.97v-3.04l4.01-1.26v4.3h3.57v2.9h-3.57v7.13c0 1.64.52 2.53 1.93 2.53a3.34 3.34 0 0 0 1.78-.45Z"></path>
  </g>
</svg>
